<svg id="Layer_1" data-name="Layer 1" xmlns="http://www.w3.org/2000/svg" viewBox="0 0 651.49 980.94"><defs><style>.cls-1{fill:#040707;}.cls-2{fill:#f8c9a6;}.cls-3{fill:#6abc45;}.cls-4{fill:#fefefe;}.cls-5{fill:#f6a8ad;}.cls-6{fill:#fccca9;}.cls-7{fill:#a91e22;}.cls-8{fill:#69bc45;}.cls-9{fill:#36302c;}.cls-10{fill:#7c685b;}.cls-11{fill:#a88b78;}</style></defs><title>18</title><path class="cls-1" d="M1536.74,59c9.4,1.8,18.84,3.33,28,6.15,13.07,4,25.41,9.46,36.19,18,15.34,12.17,24.14,28.2,26.72,47.41,2.68,19.88,2,39.66-4.46,58.92a46.89,46.89,0,0,1-4.1,9.38,7.27,7.27,0,0,0,.54,8.91,101,101,0,0,1,15.83,29.39,8.23,8.23,0,0,0,8,5.88c8.9.49,17.76,1.42,26.31,4.11,2,.63,2.27-.58,2.92-1.74,7.45-13.24,16.33-25.33,28-35.17a88.65,88.65,0,0,1,15.82-10.77c1.2-.63,2.6-1.6,3.48.22.73,1.53-.57,2.15-1.73,2.78-18.86,10.17-31.9,25.88-42.32,44.16-1,1.85-.64,2.48,1.1,3.11a47.54,47.54,0,0,1,12.87,7c1.88,1.45,2.68,1,3.94-.62,8.8-11.39,19-21.28,31.48-28.63a77,77,0,0,1,27.43-10.06c1.25-.2,2.68-.65,3,1.14s-1.13,2-2.37,2.22c-22,3.71-38.6,16.13-52.77,32.51-1.42,1.64-2.64,3.47-4.16,5-1.72,1.74-1.2,2.82.34,4.42,8.66,9,14,19.56,12.59,32.4a93.94,93.94,0,0,1-7.53,28c-.22.5-.44,1-1,2.39l5.15-3.84c17.27-12.88,35.44-24.14,56-31a96,96,0,0,1,22-4.77c1.23-.11,2.41-.16,2.62,1.37s-1,1.88-2.16,2c-28.23,3.2-51.57,17.25-74,33.38-3.61,2.6-7,5.48-10.63,8.1-1.65,1.2-2.15,2.5-1.4,4.38.34.84.49,1.75.82,2.59,2.62,6.66,2.64,6.9,9.62,6.55,10.29-.52,18.06,3.86,24.29,11.61a90.83,90.83,0,0,1,17,35.19c3.8,15.14,11.37,28.5,17.52,42.55a188.22,188.22,0,0,1,15.51,90.51c-1,13.32-1.26,26.7-2.83,40-.09.75-.27,1.49.58,2.13,7.9,6,8.92,14.66,9.2,23.63.45,14.2-2.3,27.61-10.47,40.41,8.45,0,16.29-.32,24.11.07,21.9,1.08,40.7,9,54.44,26.63,10.75,13.8,14.44,30,14.69,47.2.45,30.89-15,52.16-40.73,67.19a105.8,105.8,0,0,1-16,7.7c-2,.74-2.13,1.52-1.39,3.44A336.89,336.89,0,0,1,1837.54,893c1,26.93-.09,53.72-7.92,79.75-4.89,16.25-10.27,32.38-20,46.6-4.15,6.08-8.82,11.68-15,15.84a24.93,24.93,0,0,1-16.08,4.68c-9.29-.66-15.15-5.64-18.21-14.19-3.58-10-3.68-20.42-3.35-30.82.75-23.21,3.77-46.21,6.52-69.24q3.48-29.26,4.72-58.73c.43-10.27.58-20.55,1-30.82.08-2.23-.55-3-2.84-2.89-4.45.18-8.92.17-13.37,0-2-.07-3,.63-3.79,2.46-4.92,11.14-9.43,22.46-15,33.3-14.71,28.45-33.26,53.78-59.46,72.82-17.8,12.94-37.41,21.62-59.34,24.79-15.93,2.31-30.87-1.31-45.29-7.58-23.94-10.42-39.79-28.88-50.4-52.21-10.11-22.24-14.4-45.84-15.47-70.1-.16-3.59-.87-5.43-4.94-6.24-12-2.4-19.08-11.49-19.13-23.66,0-8-.17-16,.07-24,.09-3.06-.86-4.57-3.61-6-17.89-9.09-33.29-21.17-44.37-38.2-15.67-24.07-15.9-57.65-.19-80.28,11.45-16.48,27.34-25.12,47.58-25.22,12.45-.06,24.91,0,38,0-.86-1.34-1.48-2.32-2.1-3.31-9-14.22-13.54-29.4-9.71-46.27,1.85-8.19,6.16-14.66,14.09-18.26,1-.45,2.14-.61,1.4-2.37-2.46-5.87-4.75-11.81-7.27-18.16-7,6.15-13.81,12-20.52,17.93-31.44,27.74-62.5,55.91-91.84,85.91-26.09,26.66-50.91,54.38-70.59,86.28-13.28,21.53-23.44,44.37-27.23,69.59-1.68,11.17-2.5,22.47-3.84,33.69-2.55,21.44-5.33,42.85-10.48,63.85-4.14,16.91-16.78,26.56-33.43,25.88-14.82-.61-26.52-11.82-29.47-28.13-3.62-20.08-4.24-40.4-5-60.72-.88-24,1.33-47.67,8.63-70.68,8.07-25.44,21.75-47.62,39.24-67.59,17.85-20.37,38.49-37.72,59.23-55,43.18-35.89,89.36-67.72,135.19-100q19.74-13.9,39.74-27.43c2.23-1.51,3-3.07,2.9-5.79-.58-28.92,4.68-56.75,16.52-83.17,4.46-10,11.17-18.56,18.74-26.43,2.55-2.66,2.4-3.9-.92-5.58-5-2.54-10.52-2.84-16-3.07-9.16-.4-17.6-2.84-24.48-9.13-9.31-8.51-11.66-19.39-9.44-31.3,3.33-17.8,10.37-34,22.61-47.58,1.82-2,2.5-4.31.85-6.53-5.78-7.77-10.22-16.5-17.07-23.49-4.21-4.29-5.59-4.35-10.48-.82-16.84,12.16-35.42,18.68-56.41,17-20.63-1.64-35.85-11.56-44.42-30.53a86.29,86.29,0,0,1-5.52-55.28c3.77-16.94,15-28,30.4-35.21,8.63-4,17.89-6.06,26.94-8.77,8.19-2.46,16.3-5.11,23.76-9.47,2.54-1.48,3.52-3.29,3.75-6.26,1.53-19.63,5.67-38.63,15.2-56.06,9.28-17,22.55-28.87,42.59-31.41.17,0,.31-.29.47-.44Z" transform="translate(-1221.51 -59)"/><path class="cls-2" d="M1757.35,630c1-4,2.11-7.71,2.8-11.5a58.26,58.26,0,0,0,.39-19.45c-.25-1.66.12-2.56,1.68-3.15,2.58-1,5.15-1.89,8-1.7,1.26.09,2.39-.22,2.37-1.75s-1.23-1.7-2.43-1.73c-5-.13-9.37,1.69-13.58,4.08a64.43,64.43,0,0,0-8.16,5.65c-1.09.85-1.49,2-.8,3s2,.6,3-.16c1.9-1.43,3.83-2.82,6.17-4.53,1.54,6.61.93,12.76-.07,18.89a55.55,55.55,0,0,1-3.44,12.17c-1.18,2.92-.69,3.55,2.51,3.58,16.34.17,32.68.24,49,.53a65,65,0,0,1,63.37,55.32c2.39,15.18,2.11,30.06-4.27,44.35-7.22,16.14-19.71,27.24-34.82,35.62-18.63,10.34-38.86,15.48-59.88,18.12-23.16,2.91-45.16-2.71-67.14-8.62-13.32-3.58-26.45-7.84-39.43-12.54a10.92,10.92,0,0,0-9.56.55c-17.65,10-37,14.74-56.69,18.36-15.84,2.91-31.86,5.44-47.94,5.31-43.34-.33-81.22-14.18-109.49-48.49-22-26.76-17.66-63.77-2.71-83.35,10.91-14.31,25.35-21.94,43.56-21.91q30,0,60,.07c2.81,0,3.27-1,2.4-3.6-3.12-9.12-4.55-18.4-1.83-27.91,1.23-4.28,1.33-4.31,5.12-2.19a47.52,47.52,0,0,1,5.14,3.39c1.2.89,2.64,2.37,3.77.91s-.43-2.86-1.74-3.88c-6.07-4.76-13.08-7.36-20.51-9-2.22-.49-4.49-.82-6.75-1.12-1-.14-2.13,0-2.39,1.33-.3,1.53.71,2.1,2,2.21a66.94,66.94,0,0,1,11.72,2.39c1.25.34,1.94.79,1.29,2.36-3.87,9.45-2.9,19-.39,28.57.61,2.35.32,3-2.14,2.89-3.65-.17-7.31-.09-11,0a3.67,3.67,0,0,1-3.5-1.56c-9.27-13.1-14.79-27.23-12.43-43.64,1.61-11.21,7.4-18.52,16.73-20.64a23.22,23.22,0,0,1,14.76,1.34,97.09,97.09,0,0,1,43.73,37.13c1.2,1.88,2.08,2.28,4.25,1.7,44.3-11.81,88.77-13.1,133.38-1.76,2.4.61,3.09-.07,4-2.07a103.56,103.56,0,0,1,17.19-27.85,48.41,48.41,0,0,1,8.16-7.3c9.24-6.62,20-4.64,27.92.61,4.93,3.24,7,8.4,7.58,14,1.47,13.63.28,26.92-6,39.41-.16.31-.33.61-.48.92-2.19,4.63-5,7.82-11,6.8C1765.15,629.5,1761.3,630,1757.35,630Z" transform="translate(-1221.51 -59)"/><path class="cls-3" d="M1614.41,200.75c-4.86-5.29-9.47-10.49-14.26-15.51A75.51,75.51,0,0,0,1587.26,174c-1.1-.73-2.46-1.89-3.57-.28s.41,2.37,1.56,3.16c10.15,7.08,17.86,16.61,25.91,25.81A149.31,149.31,0,0,1,1622.59,218c-16.16-1.49-31.42,2.89-46.48,7.85-25.67,8.45-48.12,22.44-67.95,40.73a17.33,17.33,0,0,0-5.17,10.19c-4.15-3.8-7.6-7.94-11.21-11.92q-7.27-8-14.62-15.89c-1-1.08-2.3-2.63-3.69-1.16s.32,2.62,1.31,3.69L1491,269.05c-5.38,2.28-9.31,6.14-14,8.84-15.86,9.09-32.72,13.34-51,10.47-18.68-2.94-31.31-13.64-38.09-31.13a86.82,86.82,0,0,1-4.63-46.51c3-17.71,13.91-29.33,30-36.46a121.65,121.65,0,0,1,16.49-5.69c11.64-3.26,23.35-6.32,34.35-12.71-.5,5.52-1.06,10.57-1.33,15.63-.09,1.67-1.3,4.6,1.65,4.65,2.73.05,1.46-2.81,1.66-4.41,2.78-22.95,3.47-46.28,12.41-68.12,4.23-10.35,9.59-20,17.8-27.75,10.57-10.06,23.31-14.53,37.6-13.22,20.44,1.87,39.95,7.29,57.61,18.18,19.86,12.23,30.55,30.31,33.09,53.28,1.89,17,1.27,34-3.44,50.61C1619.59,190.23,1617,195.33,1614.41,200.75Z" transform="translate(-1221.51 -59)"/><path class="cls-4" d="M1566.81,527.11c.37-31.34,4-62.14,15.13-91.71,4.47-11.9,9.94-23.28,18.62-32.83,7.63-8.4,14-9.16,23.27-2.49,8.47,6.13,13.93,14.68,18.52,23.83,5.91,11.77,9.83,24.26,13.08,37,.11.44.16.9.31,1.33.46,1.35.41,3.14,2.47,3.2,1.77.05,2.13-1.43,2.69-2.67,2.49-5.49,4.87-11.05,7.51-16.48,6-12.31,12.23-24.51,21.27-35a29.41,29.41,0,0,1,2.88-2.92c5.12-4.52,9-4.92,14.87-1.33,7.48,4.57,12.25,11.5,16.14,19.11,7.57,14.8,11.27,30.78,14,47a331.77,331.77,0,0,1,4.71,54.2,156.5,156.5,0,0,1-9,52.74c-2.65,7.41-7.86,13.6-10.81,20.92-.57,1.43-1.7.58-2.65.36-7.67-1.75-15.34-3.57-23.18-4.39-2.51-.27-2.64-1.15-2-3.4,6.57-23.71,8-47.63,2.59-71.77a32.11,32.11,0,0,0-3.63-9.2c-3.81-6.53-9.64-7-14.28-1.06-4.89,6.29-7,13.81-8.65,21.4-4.16,19.6-5.25,39.34-1.63,59.17.34,1.91-.23,2.32-2,2.29-5.37-.11-10.74-.16-16.11,0-2.47.08-2.34-.71-1.93-2.75,4.57-22.8,4.75-45.56-1.11-68.2a34.85,34.85,0,0,0-5-11.54c-4.28-6.07-9.94-6.12-14.13,0-4.55,6.67-6.24,14.4-7.46,22.19-3.21,20.28-2.94,40.49,2,60.51.36,1.47.06,2-1.39,2.17a245,245,0,0,0-33.52,6.62c-1.38.38-1.67-.29-2.39-1.08-12.4-13.57-15.7-30.49-17.74-47.88A208.53,208.53,0,0,1,1566.81,527.11Z" transform="translate(-1221.51 -59)"/><path class="cls-3" d="M1642.63,354.82c-2-1.65-3.78-3.17-5.63-4.62a50.69,50.69,0,0,0-26.77-10.34c-7-.7-13.07,1.52-18.6,5.54-11.74,8.53-20.33,19.92-28.61,31.61-3.82,5.41-6.85,11.37-11.29,16.34-1.34,1.51-3,2.78-4.55,4.27-1.66-6.92-3.2-13.8-5-20.61-1.27-4.85-2.87-9.62-4.38-14.41-.41-1.28-.91-3-2.72-2.37s-1,2.19-.55,3.45a229.42,229.42,0,0,1,7.29,26.38,7.82,7.82,0,0,1,.29,3.77c-7.53-3.1-15.63-2.3-23.37-3.8-18.1-3.51-27.68-17.28-24.36-35.31,3.2-17.37,9.94-33.26,22.2-46.27,2.28-2.41.36-6.88,4.09-7.65,3.45-.71,5.63-2.82,8-4.94,22.19-19.85,46.57-36,75.36-44.79a108.58,108.58,0,0,1,19.71-4.2c5.13-.57,6.33-1.37,9.65-5.94,3,5,7.94,5.75,13.13,5.89a95.12,95.12,0,0,1,20.93,3.24c1.84.48,2.28,1,1.33,2.93-12.61,25.8-19.62,53.24-23.65,81.53C1644.19,341.14,1643.49,347.8,1642.63,354.82Z" transform="translate(-1221.51 -59)"/><path class="cls-5" d="M1622.39,828.09A58.81,58.81,0,0,1,1654,839.52c16.12,11.7,25.24,28.21,31.57,46.57,2.69,7.81,2.64,7.85-3.52,13.44-16.07,14.59-34.18,25.69-55.52,30.39-20.72,4.56-38-2.35-52-17.88-13.18-14.62-20.32-32.32-25.45-51-2.34-8.49-3.93-17.13-5.42-25.79-.39-2.3-.12-3.34,2.65-3.74,10.75-1.56,17.54-9.7,17.61-20.65,0-5.15.1-10.3,0-15.44-.05-2.08.68-2.66,2.7-2.88a15.62,15.62,0,0,1,9.48,1.8c15.41,8.2,29.28,18.66,40.27,32a88,88,0,0,1,19,43.79c.2,1.36-.32,3.48,2,3.24s1.65-2.42,1.49-3.86c-1-8.71-3.83-16.89-7.46-24.8A171.76,171.76,0,0,0,1622.39,828.09Z" transform="translate(-1221.51 -59)"/><path class="cls-6" d="M1543.41,935.66a87.23,87.23,0,0,1-15.69-20.87C1517.3,896.17,1512,876,1509.24,855c-.88-6.69-1.25-13.41-1.71-20.14-.18-2.58.76-2.61,2.62-2.38a113.93,113.93,0,0,0,27.68.14c2.17-.24,2.14,1,2.33,2.38a207.81,207.81,0,0,0,9,38.61c5.57,16.25,13,31.45,25.44,43.71,17.83,17.61,38.7,21.51,62.14,13.51,28.57-9.75,50.66-28.11,68.71-51.8a199.65,199.65,0,0,0,23.71-40.33c2-4.62,5.6-6.39,9.48-4.77,3.64,1.52,5,5.44,3.15,9.85-12.36,30.07-28.35,57.83-51.91,80.65-20.14,19.5-43.49,33.18-71.41,38.1-22.94,4-43.42-2.65-62.11-15.43-5.18-3.55-7.69-9.84-10.7-15.34-6.88-12.57-11.51-25.84-11.67-40.37a34.74,34.74,0,0,1,.27-4.78c.18-1.37.22-2.75-1.4-3-1.91-.25-2.09,1.36-2.18,2.76a74.71,74.71,0,0,0,3.6,28A132.26,132.26,0,0,0,1543.41,935.66Z" transform="translate(-1221.51 -59)"/><path class="cls-7" d="M1690.93,891.24c-4-13.12-8.87-24.73-16.18-35.22-10.41-15-23.94-25.58-41.89-30a22.24,22.24,0,0,0-6.38-1c-5,.33-8.45-2-11.78-5.5a144.07,144.07,0,0,0-36.16-27.73c2.19-1.2,4.53-1,6.76-1.28s4.71-.81,7.07-1.2c17.92-3,35.56-7,52.28-14.4a14.36,14.36,0,0,0,3.1-1.42c6.82-5.31,13.61-4.51,21.35-1.49,14.55,5.66,29.68,9.69,44.84,13.49,1.75.44,2.79.71,2.21,3.08-3.35,13.52,2.68,28.87,14,34.17,2.5,1.17,3,6.84.81,8.31-2.86,1.91-4.23,4.69-5.57,7.61a194.8,194.8,0,0,1-32.27,49.83C1692.48,889.12,1692,889.88,1690.93,891.24Z" transform="translate(-1221.51 -59)"/><path class="cls-4" d="M1483.71,796.11c0-4.34.07-8.69,0-13-.05-2.16.45-2.49,2.5-1.61a155.17,155.17,0,0,0,41.71,11.42,121.79,121.79,0,0,0,29.37.51c2.41-.28,3.17.22,3.08,2.73-.18,5.13,0,10.28-.06,15.43-.11,8.28-5.3,14.72-13.4,16.23a115.64,115.64,0,0,1-47.91-.86,19.89,19.89,0,0,1-15.24-19.16C1483.64,803.89,1483.71,800,1483.71,796.11Z" transform="translate(-1221.51 -59)"/><path class="cls-3" d="M1706.28,292.16a105.21,105.21,0,0,1-8.48,31.61c-2.39,5.39-6,9.38-10.41,13.12a346.52,346.52,0,0,0-31.19,30.25c-.93,1-2.19,3.27-3.12,2.44-1.4-1.27-2.82-3.23-2.16-5.74,1.35-5.07,2.41-10.22,3.79-15.27,7.76-28.32,18.32-55.44,34.53-80.11,3.66-5.58,3.75-5.58,7.81-.42C1702.39,274.83,1706,282.32,1706.28,292.16Z" transform="translate(-1221.51 -59)"/><path class="cls-4" d="M1756,822.37c-3.77,0-7.54-.17-11.3,0-14.18.78-27.33-10.46-25.81-29.17.51-6.39.72-6.46,7-5,18.95,4.36,37.95,4.23,57,.76.23,0,.45-.1.68-.13,6.28-.76,6.7-.35,6.54,6a45.36,45.36,0,0,1-2.94,15,18.66,18.66,0,0,1-17.84,12.47C1764.87,822.43,1760.42,822.37,1756,822.37Z" transform="translate(-1221.51 -59)"/><path class="cls-3" d="M1647.69,360.75a3.42,3.42,0,0,1-1.59-3.28c2.82-35.39,10.07-69.68,25.22-102,1.39-3,2.66-3.6,5.55-2.1a83.18,83.18,0,0,1,11.29,6.4c1.08.79,1.92,1.37.83,2.95-20.42,29.54-32.41,62.63-40.73,97.25C1648.21,360.13,1648,360.3,1647.69,360.75Z" transform="translate(-1221.51 -59)"/><path class="cls-8" d="M1694.86,335.26a32.82,32.82,0,0,0,3.74,8.88c1,1.52.17,1.9-1,2.32-10.07,3.45-18.28,9.6-25.41,17.39a94.41,94.41,0,0,1-13.54,12c-.82.62-1.77,2.46-3,.87a3,3,0,0,1,.32-4.25c3.47-3.45,6.67-7.19,10.08-10.71q13-13.4,27.26-25.44C1693.73,336,1694.21,335.71,1694.86,335.26Z" transform="translate(-1221.51 -59)"/><path class="cls-1" d="M1642.2,730.37c-17.89-1-34.81-5.17-49.58-15.8-6.45-4.64-11.52-10.52-12.69-18.77-1.41-10,3.35-17.41,10.61-23.5,10.53-8.82,23.14-12.91,36.34-15.58a122.3,122.3,0,0,1,31-2c15.41.83,30.44,3.5,44.29,10.86a54.61,54.61,0,0,1,12,8.42c12,11.27,11.93,26.18-.1,37.35-9.4,8.73-20.95,13.14-33.14,16.11A91.8,91.8,0,0,1,1661,730.3,182,182,0,0,1,1642.2,730.37Z" transform="translate(-1221.51 -59)"/><path class="cls-9" d="M1656.16,628.49c20.42.92,40.34,4.27,59.28,12.34a21.36,21.36,0,0,1,2.47,1.15,1.65,1.65,0,0,1,.64,2.11,1.47,1.47,0,0,1-1.89,1,11.36,11.36,0,0,1-2.26-.7A156.87,156.87,0,0,0,1668.49,633c-9.61-.93-19.32-1.54-29-.77-20,1.59-39.63,5-58.43,12.27a9.57,9.57,0,0,1-.94.41c-1.22.32-2.55.82-3.16-.88s.73-2.21,1.89-2.67a157.57,157.57,0,0,1,22.12-7,184.16,184.16,0,0,1,34.59-5.26c2.9-.13,5.86-.36,8.79-.67A82.57,82.57,0,0,1,1656.16,628.49Z" transform="translate(-1221.51 -59)"/><path class="cls-10" d="M1642.2,730.37l18.83-.07A64.58,64.58,0,0,1,1642.2,730.37Z" transform="translate(-1221.51 -59)"/><path class="cls-11" d="M1656.16,628.49l-11.77,0A27.64,27.64,0,0,1,1656.16,628.49Z" transform="translate(-1221.51 -59)"/></svg>