<svg id="Layer_1" data-name="Layer 1" xmlns="http://www.w3.org/2000/svg" viewBox="0 0 555.23 941.22"><defs><style>.cls-1{fill:#979797;}.cls-2{fill:#959595;}.cls-3{fill:#f9ee5b;}.cls-4{fill:#ae5726;}.cls-5{fill:#fefefe;}.cls-6{fill:#fdca80;}.cls-7{fill:#c32026;}.cls-8{fill:#433a16;}.cls-9{fill:#040707;}.cls-10{fill:#f28490;}.cls-11{fill:#fdfdfd;}.cls-12{fill:#f0e65d;}.cls-13{fill:#787878;}.cls-14{fill:#656565;}.cls-15{fill:#040606;}.cls-16{fill:#010101;}</style></defs><title>2</title><path class="cls-1" d="M1203.37,970.94a.78.78,0,0,0,0-.58c.86-1,2.09-1.09,3.28-1.11q9.29-.12,18.58,0a4,4,0,0,1,3.28,1.11.78.78,0,0,0,0,.58Z" transform="translate(-1113.07 -29.72)"/><path class="cls-2" d="M1113.65,315.38a2.84,2.84,0,0,0-.58-.05V302.8a.89.89,0,0,0,.6,0A15.82,15.82,0,0,1,1113.65,315.38Z" transform="translate(-1113.07 -29.72)"/><path d="M1662.26,254c-4.62-32-11.12-63.51-21.29-94.2-9.42-28.44-21.5-55.57-39.83-79.56-18-23.56-40.85-39.78-70.07-46.35-23.55-5.3-47.27-5.11-71-1.94-32.64,4.37-64,13.6-94.45,26-5.16,2.09-9,4.43-8.46,10.66a4,4,0,0,1-.23,1.3c-.64,2.39-1.91,3.21-4.37,2.1-4.88-2.19-4.91-2.13-6.91,2.7-2.16,5.21-5.32,6.37-9.21,2.48-4.25-4.24-8.61-4.16-13.84-2.87-17.79,4.37-33.81,12.59-49.13,22.29-33.35,21.13-62.33,47.37-88.6,76.68-22,24.6-41.72,50.91-56.28,80.75-7.54,15.45-13.39,31.44-14.9,48.75q0,6.32,0,12.62a71.64,71.64,0,0,0,1.74,11.37c4.32,19.08,13.63,35.75,25.09,51.31,21,28.47,46.8,52,75.09,72.9a8.44,8.44,0,0,1,3.09,3.26c5.53,12,11.3,24,17.54,35.67.9,1.69.81,2.52-1.06,3.45-25.81,12.78-43,33.75-55.57,59-2,4.07-.85,6.88,3.38,8.17a204.55,204.55,0,0,0,25.89,6.11,157.19,157.19,0,0,0,30.73,2c-.59,1.4-1,2.5-1.51,3.57-11.58,24.86-21.69,50.27-28.48,76.9-3.68,14.4-6.17,29-5.51,43.94a8.26,8.26,0,0,0,3.92,7c11.65,8.08,24.73,12.07,38.65,13.5a5.37,5.37,0,0,1,4.91,3.42q15.14,30.63,30.42,61.2c1.79,3.6,4.38,6.07,8.59,6.11,1.58,0,2,.82,2.48,2a254,254,0,0,1,11,32.32c1.82,7.18,2.93,14.38.08,21.65a267.85,267.85,0,0,1-37.59,66.42,33.16,33.16,0,0,1-16.74,11.54c-12.74,4.1-25.82,6.87-38.7,10.43-9.07,2.51-18.16,5-26.49,9.57-3.1,1.7-6,3.68-8,6.68-3.74,5.62-2.14,12.25,3.77,15.36.92.48.86,1.19,1.08,1.82,1.91,5.49,4.66,7.59,10.39,7.79l11.52.41h25.14c14.83-.64,29.54-2.05,43.64-7.08,9.07-3.23,17.42-7.7,22.05-16.63,8-15.46,15.69-31.08,23.44-46.66,5.58-11.21,11.05-22.48,16.78-34.15,5.1,13.12,12.27,24.69,18.56,36.7,5.75,11,11.17,22.1,17.32,32.82,10.46,18.22,25.93,28.15,47.51,27.12a158.77,158.77,0,0,1,24.67.55c5.88.64,11.77,1.36,17.67,1.76,5.69.39,11.63.05,15.6-4.46,3-3.44,6.54-4.76,10.59-6.09,8.67-2.85,11-11.45,5.38-18.73a24.08,24.08,0,0,0-7.62-6.17c-6.58-3.68-13.74-5.64-21-7.25-10.94-2.41-22.16-3-33.15-5.19-14.3-2.84-26.27-9.22-35.33-21-6.56-8.52-13.86-16.45-21.19-24.34A141,141,0,0,1,1355.48,848c-3-5-5.33-10.22-5.92-16.2-1.4-14.09-2.36-28.23-4.61-42.21-.34-2.12-.24-2.77,2.11-2.75,6,0,9.1-2.55,10.49-8.34,1.44-6,3-11.92,4.09-17.95.66-3.75,2.16-5.42,6-6.59,18.73-5.62,32.65-17.78,42.56-34.29,14.78-24.62,16.34-50.88,8-78-.7-2.26-.52-3.28,1.82-4.06,5.39-1.78,10.78-3.61,16.06-5.73,7.46-3,12-8.56,13.65-16.48,1-4.82.13-9.39-1.38-13.9-6.38-19-14.93-37.14-23.4-55.28-2.41-5.18-4.86-10.34-7.41-15.74,17.14,6.09,33.91,11.81,50.51,18,44.79,16.69,91.14,24.34,138.82,24.36,11,0,21.88-1.5,32.23-5.56,14.14-5.55,23.67-19.82,22.89-34.85-.62-11.73-.76-23.46-.6-35.2.25-18.23,1.31-36.42,2.38-54.61,1.56-26.62,3.32-53.23,4.18-79.89A618.93,618.93,0,0,0,1662.26,254ZM1386.64,719.32c5.15-4.26,5.81-10,5.86-16.11a463.45,463.45,0,0,1,2.66-49.27c.53-4.56,1.23-5.26,5.63-6.18,1.93-.4,1.6,1,1.8,1.9a107.29,107.29,0,0,1,2.12,25.53c-.28,10.37-1.86,20.51-6.28,30C1395.59,711.35,1390.76,717.37,1386.64,719.32Z" transform="translate(-1113.07 -29.72)"/><path class="cls-3" d="M1350.17,270.57a36.83,36.83,0,0,0-18.42,4.06c-8.22,4.16-16.94,6.28-25.87,8.16-19.68,4.15-38.85,10-56.79,19.32-1.45.75-1.95.79-2.23-1.11a270.79,270.79,0,0,0-5-27.49c-.78-3.11-.21-6.56-.19-9.86.13-15.93.67-31.85-.06-47.77a8.72,8.72,0,0,1,2.05-6.06c8.4-10.56,17.83-20,29.91-26.34a69.08,69.08,0,0,0,13.66-9.12,14.47,14.47,0,0,0,4.07-5.47c1-2.4,2.64-4.67,5.48-4.43,3.32.28,4.31,3.16,4.57,6,.28,3,.81,5.87,2.84,8.24,3.39,3.95,7.44,3.91,9.81-.67,1.58-3,3.5-4,6.6-3.82a7.75,7.75,0,0,0,2.87-.64c3.61-1.27,4.77-3.91,2.83-7.22a11.08,11.08,0,0,1-1.48-6.26,28.81,28.81,0,0,0-.87-8.17c-1.62-6.41-5.55-13.2-15.46-12.81-3.28.13-6.58-.17-9.87-.3-2-.09-2.79-1.21-2.93-3.2-.41-6,1.26-11.15,5.73-15.46,5.45-5.24,11.79-9.12,18.26-12.84a12.46,12.46,0,0,0,5.88-6.39c1.73-4.57-.54-8.14-5.41-8.6-5.11-.49-9.5,1.32-13.51,4.21-9.2,6.6-16.44,15.15-23.47,23.9-2.67,3.31-5.2,6.74-8.31,10.78-.1-2-.16-3.21-.24-4.45-.22-3.31-2.09-5.3-5-5.39s-5.33,2-5.55,5.3c-.18,2.74,0,5.5-.13,8.24-.18,4.17-.52,8.33-.7,12.49-.21,4.85-2.42,8.79-5.28,12.51a363.94,363.94,0,0,1-25.72,30c-9.1,9.53-11.26,20.34-10.45,32.87,1,15,.89,30.06,1.44,45.09.08,2.33-1.4,2.13-2.63,2.4a68.53,68.53,0,0,0-23.26,9.63c-11.58,7.61-19.49,17.4-18.33,32.27.17,2.21-.26,2.78-2.67,2.1a157.76,157.76,0,0,0-21.2-4.55c-1.42-.2-3.43-1.21-3.74,1.09-.26,2,1.79,1.78,3.14,2,7.6,1.13,15,3,22.49,4.85a2.49,2.49,0,0,1,2.14,2.69,170.79,170.79,0,0,0,2.46,22.57c.41,2.29-.71,2.17-2.29,2.17-11.53-.06-23.06-.07-34.59-.09-.66,0-1.32,0-2,0-1.16.05-2.67-.31-2.76,1.48s1.44,1.59,2.59,1.62c2.09,0,4.18.07,6.26,0,10.54-.45,21.07-.17,31.6.25,1.31,0,2.15.08,2.48,1.78,6.49,32.77,18,63.89,31.4,94.35a15.24,15.24,0,0,1,.5,2.14c-5.92-4.74-11.26-8.86-16.43-13.17-22.88-19.05-43.87-39.89-60.48-64.78-9.82-14.7-17.55-30.34-20.43-48.05-2.48-15.3.38-29.93,5.34-44.27,8.71-25.16,22.49-47.55,38.28-68.74,29.09-39,63.2-73,103.13-100.94,14.85-10.4,30.46-19.49,47.59-25.73a109.43,109.43,0,0,1,14.55-4.08c2.5-.53,4.78-.39,6.53,1.87a9.09,9.09,0,0,0,2,1.66c5.67,4,10.51,2.75,13.28-3.57.86-2,1.36-2.55,3.6-1.63,4.5,1.85,8.33-.47,8.34-5.56s2.69-7,6.93-8.76c29.82-12,60.44-21.13,92.33-25.5,24.07-3.29,48.11-3.57,72,2,29.79,7,52.38,24.25,70,48.69,18.46,25.57,30.26,54.3,39.44,84.21,10.13,33,16.41,66.86,20.44,101.13a569.84,569.84,0,0,1,3.72,78.57c-.58,28.43-2.41,56.79-4.09,85.17-1.73,29.26-3.51,58.53-2.72,87.88.15,5.36,1.15,10.69,0,16.08-2.52,12.39-9.5,21.06-21.33,25.55-12.65,4.79-25.92,5.66-39.23,5q-23-1-45.91-3.59c-21.68-2.43-42.67-7.73-63.39-14.31-23.82-7.55-47.24-16.24-70.7-24.84-3-1.08-3.53-1.91-5.09-7,11.42-.17,22.81-.53,34.17-1.34,6-.43,12-1,18-1.53,3-.29,5.59.5,6.73,3.48,6.87,17.89,20.65,27.41,38.62,31.31,19.82,4.31,39.53,3.47,58.58-3.9,22.06-8.53,35.76-25,43.31-47,2.2-6.43,4.37-13,3.44-19.92-1.17-8.75-5.26-15.37-13.74-19-19-8.1-33.84-21.63-47.7-36.56-6.71-7.23-10.75-16-15.6-24.27-15.29-26.12-29.52-52.84-44.55-79.1-18.07-31.56-42.23-57.64-73.37-76.85a123.81,123.81,0,0,0-34.84-15.2c-.64-.16-1.27-.37-1.92-.47-1-.16-2.09-.18-2.44,1.05s.32,1.95,1.51,2.47c12.73,5.56,22,15.38,31.19,25.33a4.74,4.74,0,0,1,.39,1c-4.42-2.24-8.52-4.43-12.7-6.42a214.29,214.29,0,0,0-71.31-19.51,239.88,239.88,0,0,0-64.94,2.1c-1.19.2-2.37.44-3.56.66s-1.85.79-1.8,2,1,1.5,2.1,1.56c6.68.37,13.36.66,20,1.16a334.59,334.59,0,0,1,76.1,14.31,4.77,4.77,0,0,1,2.7,1.39,350.5,350.5,0,0,0-47.09-2.26c-16.38.39-32.67,1.59-48.2,7.5-1.81.69-4.86,1-4.2,3.65s3.47,1.14,5.21,1a418.29,418.29,0,0,1,51.31-.51c11.06.65,22.09,1.57,32.94,4C1351,270.6,1350.81,270.87,1350.17,270.57Z" transform="translate(-1113.07 -29.72)"/><path class="cls-4" d="M1395.94,416.94c8,3.95,15.3,8.23,22.57,12.55A630.17,630.17,0,0,1,1478.13,470c1,.77,2.06,1.74,3,.25s-.59-2.17-1.43-2.8c-14-10.51-28.24-20.66-43-30.12-10.35-6.65-20.79-13.16-31.71-18.84a8.17,8.17,0,0,0-1.4-.79c-9-2.48-11.89-10.35-15.7-17.46-1.17-2.19-2.52-4.28-4-6.81,4.61.57,8.63,2.08,12.67,3.28,21.11,6.23,42.22,12.48,63.07,19.54,12.29,4.15,24.61,8.24,36.34,13.88a27.36,27.36,0,0,1,3.45,1.88c1,.68,2,1.26,2.81,0s-.41-2-1.28-2.48a109.85,109.85,0,0,0-10.42-5.19c-14-5.65-28.28-10.62-42.7-15.12-17.94-5.59-35.84-11.38-54-16.19-3.25-.86-6.45-1.9-9.69-2.78s-5.43-3.16-7.34-5.69a24.46,24.46,0,0,0-2.82-3.18c-.62-.58-1.42-1.4-2.24-.6s-.49,1.82.21,2.66c.91,1.08,2.14,1.94,2.45,3.7-5.3-1.37-10.53-2.69-15.74-4.08-1.12-.31-2.42-1.26-3,.44-.63,2,1.35,2,2.43,2.31,5,1.48,10,2.82,15,4.19.2,1.11-.55,1.56-1,2.17-5.18,7.71-5.15,7.63-13.66,4.07-1.41-.59-3.7-2.77-4.7-.14-.92,2.44,2.16,2.12,3.51,2.83a61.31,61.31,0,0,0,6.19,2.37c-3.79,4.27-8.41,6.91-13.18,9.15-15.42,7.22-31.62,8.07-48.06,4.9-6-1.14-10.48-5.45-14.52-9.72a65.79,65.79,0,0,1-15.9-29.11c-3-11.46.36-21.41,6.35-30.87,2-3.2,3.86-6.66,8.07-8.63,0,1.55.07,2.81,0,4-.9,16,8.67,27.86,23.41,33,11.86,4.09,23.4,3.87,34.15-3.33,6.09-4.08,8.94-10,8.7-17.32,5.15,1.09,13.44,11.24,13.64,16.68,0,1.05-.59,2.77,1.4,2.68,2.15-.1,1.43-1.95,1.33-3.05-.39-4.39-2.51-8.08-5.36-11.29-8.72-9.8-20.28-15.11-32.07-20l-2-.86c5.85-7.27,11.39-14.65,14.72-23.4a47.12,47.12,0,0,0,3.1-14.69c.46-10-5.58-16.72-15.81-15.89,9.51-4.87,16.45-4.08,24.56,2.86q3,2.57,5.84,5.31a3.68,3.68,0,0,0,5.06.5c1.65-1.11,2-2.67,1.37-4.6-.73-2.32-2.12-4.3-3.3-6.84a178.8,178.8,0,0,1,73.21,20.44c-1.86.38-3.08.65-4.32.87-2.39.42-3.47,1.94-3.1,4.21s2.18,3.29,4.36,3a42.63,42.63,0,0,1,14.69.17c6,1.22,11.67,5,12.53,12.37A99.88,99.88,0,0,1,1462,345c-.24,2-.39,3.91,1.91,4.57s3.58-.81,4.16-3a98.71,98.71,0,0,0,3-22.69c1.57.7,2.85,2.17,4.26,3.43,13.88,12.44,24.15,27.77,34.39,43.12,10.84,16.24,21.77,32.44,34.14,47.57,16.19,19.79,34.27,37.3,58.26,47.65,7.33,3.16,11.93,12.83,10.48,20.94-.8,4.46-1.65,8.94-3.9,13.11a68.25,68.25,0,0,0-1.86-12.46c-4-14.11-13.78-21-28.11-22.95-13.11-1.76-25.92.84-38.81,2.41-3.36.41-6.75.65-9.94,1.91-6,2.39-10.19,6.37-10.88,13.14-.19,1.82-.85,2-2.33,1.26a12,12,0,0,0-5.13-.89c-6.13-.1-8.26,1.6-9,7.74-.23,2.05-.3,2.95-2.79,1.8-4-1.83-8.3-.18-10.83,4.2-5.59,9.7-5.78,19.55.2,29.22,4.84,7.82,11.11,14.41,18,20.45a21.31,21.31,0,0,1,2.81,2.81c-9.91-2.13-18.75-6.26-25.91-13.64a42.63,42.63,0,0,1-9.19-14.29c-2.07-5.27-5.73-7.23-11.42-6.55-6.29.74-12.6,1.43-18.92,1.84a481.51,481.51,0,0,1-51.67.59c-30.59-1.26-60.76-5.18-89.39-17-20.54-8.49-37.3-22-51.61-38.75-19.14-22.38-31.07-48.34-37.63-76.9a150.27,150.27,0,0,1-3.42-25,49.7,49.7,0,0,1,.55-7.18,1.59,1.59,0,0,1,2-1.63c17.24,2,34.53,3.8,50.92,10.15,2.7,1,4.09,2.25,3.7,5.45a24.92,24.92,0,0,0,.65,10.12c.69,2.29-.3,2.42-2.16,2.36-4.48-.15-9-.51-13.41.66-5.51,1.47-10.13,4.16-12.91,9.37-.55,1-1.41,2.33.08,3.12,1.3.7,1.88-.54,2.44-1.52,3.52-6.18,9.4-8.15,16-8.9a8,8,0,0,1,1,0c9.66-.17,9.56-.12,13.54,8.62,5.45,12,13.38,21.83,25.26,28,1.67.86,1.74,1.91,1.8,3.38.44,12.91-.76,25.5-5.5,37.73-3.13,8.05-1.36,15.69,5.72,20.86,6.22,4.54,13.39,4.76,20.44,1.3,4.49-2.2,8.38-5.32,12.25-8.41a125.32,125.32,0,0,0,14-13.37,290.08,290.08,0,0,0,19.11-23.83c4.83-6.53,9.71-13.09,16.3-18.05a23.79,23.79,0,0,1,3.81-2.42c2.94-1.45,5.36-.47,6.49,2.69,1.06,3,1.94,6,2.85,9a15.94,15.94,0,0,0,1.78,3.49,1.77,1.77,0,0,0,2.47.9c1-.55.4-1.5,0-2.27C1398,424.9,1397.15,421.11,1395.94,416.94Z" transform="translate(-1113.07 -29.72)"/><path class="cls-5" d="M1363,598.74a37.36,37.36,0,0,0-9.1,13.77c-.49,1.31-1.38,1.41-2.51,1.63a21.74,21.74,0,0,1-15.8-3c-12-7.26-20.24-17.69-25.31-30.63-3.61-9.22-9.41-12.08-18.56-8.53-1,.39-1.49.39-2.18-.44-4.77-5.74-11.22-6.73-18-5.48-8.85,1.63-16.39,6-22.78,12.4a13.9,13.9,0,0,0-1.49,1.75c-1.11,1.55-2.12,3.2-1.26,5.17s2.85,2.24,4.73,2.38c3.63.29,7.21-.32,11.25-.82-.82,1.68-1.53,3-2.19,4.46a19.89,19.89,0,0,0-1.88,12.79c.76,3.66,3,5.53,6.31,5.52,3.58,0,4.56-2.53,5.2-5.33.54-2.33.74-4.72,2.68-6.55,2.94-2.75,6.08-3,9.06-.27,4,3.68,5.88,8.56,7.5,13.86-5.86-.09-11.31.29-16.55,2.16-6.26,2.24-11.1,6.13-14,12.24-2.75,5.9,1,11.28,7.46,10.91a18.31,18.31,0,0,0,7.74-2.58c3.27-1.8,6.49-3.67,9.69-5.58,3.92-2.36,7.78-2.59,11.78-.13,2.8,1.72,5.72,3.24,8.59,4.84a16.23,16.23,0,0,0,9.21,1.86c12.26-.76,24.48-1.89,36.82-3.7a126,126,0,0,1-2.07,27.28,220.43,220.43,0,0,1-8.28,32.17c-.71,2.18-1.65,2.54-3.77,2.09a320.71,320.71,0,0,0-74.22-7c-17.23.39-34.37,2.06-51.17,6.2-2.42.59-2.67-.16-2.71-2.24-.37-18.94,4.16-37,9.64-54.9,6.57-21.42,15.07-42.1,24.45-62.43,1.49-3.22,3.26-4.42,6.73-4.75,14.89-1.39,28.73-5.91,40.89-14.89a51.53,51.53,0,0,0,9.27-8.36c1.54-1.86,2.82-2.67,4.91-.66a10.36,10.36,0,0,0,4,2.15c2.49.76,4.47-.35,6.3-2.67C1317.75,572.91,1332.69,592.48,1363,598.74Z" transform="translate(-1113.07 -29.72)"/><path class="cls-4" d="M1295.87,784.78c6.54-1.87,13.83,2.25,19.92-3.28,1.45,3.27,1.5,6.85,2.15,10.25,4.35,22.62,7.88,45.41,14.45,67.56a6.22,6.22,0,0,1-.71,4.72c-12.31,25.1-25,50-37,75.25-7.29,15.29-20.06,20.88-34.86,24.25a171.88,171.88,0,0,1-28.92,3.56c-7.89.43-15.78.62-23.65.33q-7.87-.3-15.75-.56a6.93,6.93,0,0,1-6.67-4.5c-.77-1.88-.77-3.47.75-5.11,9.11-9.82,20.42-15.61,33.34-18.59,7.17-1.66,14.56-1.28,21.77-2.58,9.9-1.79,18.27-6.55,25.68-13.19,6.24-5.59,11.34-12.2,16.46-18.78,1.49-1.9,2.94-3.88,5.19-4.94,1-.49,1.35-1.15,1-2.07-.46-1.07-1.47-.84-2.29-.56a9.76,9.76,0,0,0-4.08,3.23c-5.81,6.71-10.82,14.11-17.43,20.14-9.57,8.72-20.49,13.64-33.68,14.21-19,.82-35.67,7.34-48.75,21.71-1.65,1.81-3.2,1.53-4.28-.69-1.52-3.15-.72-7,2.15-9.94,4.3-4.32,9.84-6.49,15.41-8.5,14-5.06,28.6-8,42.92-11.9,3.79-1,7.51-2.35,11.32-3.31,10-2.51,16.56-9.35,22.36-17.32a308.65,308.65,0,0,0,32.91-58.27c5.2-11.87,3.23-23.26-.31-34.87C1302.48,802.14,1299.22,793.46,1295.87,784.78Z" transform="translate(-1113.07 -29.72)"/><path class="cls-6" d="M1605.39,502.28c1.14,6.19-2.19,11.46-5.57,16.6-11.33,17.21-27.7,26.7-47.63,30.47a110.79,110.79,0,0,1-33.37.76,3.84,3.84,0,0,1-2.14-.66c-10.26-8.32-20.19-17-26.39-29-3.79-7.32-2.9-14.72.62-21.8,2.54-5.12,5.6-5.65,10.18-2.36,2.38,1.71,3.85,1.09,4.11-1.94a26.86,26.86,0,0,1,1.12-6.78,3.5,3.5,0,0,1,4-2.61,13.85,13.85,0,0,1,8.63,3.31c6.28,5.51,13.14,10.25,21.39,12.48,1.31.35,3,1.47,3.67-.49s-1.29-2-2.65-2.44a53.55,53.55,0,0,1-18-10,4,4,0,0,1-1.59-3.39c-.14-6.28,3.52-11.19,10.18-13.3,5.16-1.62,10.59-1.69,15.9-2.45,8.88-1.26,17.78-2.29,26.82-1.75,19.3,1.14,30.2,12.19,30.7,31.53C1605.42,499.61,1605.39,500.71,1605.39,502.28Z" transform="translate(-1113.07 -29.72)"/><path class="cls-4" d="M1319.36,781.2c6,3.7,12.35,5,19,5.23,2.12.07,3.13,1,3.49,3.39a350.39,350.39,0,0,1,3.81,36.52c.53,13.21,6.65,23.76,14.18,33.94s16.54,18.76,24.55,28.36c3.59,4.3,7.27,8.51,10.83,12.84,9.14,11.14,21.57,16,35.2,18.73,12,2.4,24.32,2.74,36.17,6,7.73,2.1,15.42,4.33,21.43,10.1,2.93,2.81,4.4,6.19,2.93,10.1-1.54,4.11-5.57,4.93-9.25,6a1.45,1.45,0,0,1-2-1.19c-2.06-8.66-8.58-13.19-15.87-16.89-8.29-4.2-17.26-6.19-26.37-7.55-11.12-1.67-22.31-2.84-32.9-7-6.84-2.73-12.41-6.87-16.17-13.31-1.44-2.48-3.12-4.8-5.8-6.12-1.06-.52-2.33-1.33-3.12.19-.7,1.36.53,1.93,1.52,2.42a9,9,0,0,1,4,3.83c6,11,16.14,15.83,27.66,18.8,10.08,2.59,20.48,3.13,30.62,5.28,9.58,2,18.89,4.76,26.77,11a21.36,21.36,0,0,1,4.46,4.79c4,5.91,3.38,9.79-4.47,13.71-4.34,2.17-9.24,1.65-13.93,1.13-11.75-1.33-23.5-3.13-35.33-2.22-7.68.59-15.06.07-22.24-2.55-12.79-4.68-21.23-14.13-27.21-25.91-9-17.69-18.66-35-27.93-52.58-6.7-12.67-10.56-26.33-13.48-40.32-3.71-17.75-7-35.57-10.32-53.39C1319.43,783.49,1319.45,782.5,1319.36,781.2Z" transform="translate(-1113.07 -29.72)"/><path class="cls-7" d="M1235.35,565.82a181.15,181.15,0,0,1-50.64-8.13c-1.85-.57-3.73-1-2.36-3.78,11.18-22.46,26.19-41.53,48.09-54.51a99.2,99.2,0,0,1,40.6-13.11,7.72,7.72,0,0,1,5.82,1.52,117,117,0,0,0,10.74,7c1.64,1,2.06,1.79,1.34,3.61a40.27,40.27,0,0,0-2.66,15.76c.08,4,0,3.7-4,3.27-8.48-.91-16.85-.51-24.67,3.49a21.24,21.24,0,0,0-6.1,4.41c-.76.82-1.11,1.88-.4,2.65.86,1,1.76.12,2.52-.54,7.75-6.8,16.94-7.71,26.77-7.25,4.87.22,7.05,1.85,8.29,6.51s4.26,8.41,7.67,11.73c1.44,1.41,1.44,2.21.07,3.7-10.29,11.27-23.23,17.71-37.88,21.07A124.63,124.63,0,0,1,1235.35,565.82Z" transform="translate(-1113.07 -29.72)"/><path class="cls-7" d="M1316.9,524.66c3.77,5.46,7.16,10,11.79,13.49.71.53,1.44,1,2.14,1.53s1.63.89,2.27-.07a1.66,1.66,0,0,0-.47-2.34c-.51-.42-1.1-.73-1.61-1.16-9.17-7.71-15.34-17.2-17.38-29.44,6.15,1.64,12.11,3.31,18.11,4.8a243.46,243.46,0,0,0,33.59,5.71,7.9,7.9,0,0,1,4.39,2c20.69,17,32.45,39.06,36.5,65.38.17,1.08.07,2.2.18,3.29.61,6.37,0,7-6.37,7.74-3,.33-6.07.8-9.11,1.14a11.22,11.22,0,0,1-6.68-1c-5.11-2.57-10.52-3.11-15.8-.46-2,1-3.88.51-5.74.14-24.63-4.88-41.4-22.48-45.25-47.36-.58-3.78-1.38-7.56-1.29-11.4S1316.61,529.29,1316.9,524.66Z" transform="translate(-1113.07 -29.72)"/><path class="cls-8" d="M1272.89,262.9c3.4-1.93,7-2.25,10.45-2.9,17.1-3.23,34.43-3.19,51.7-2.57a300.2,300.2,0,0,1,38,3.65c1.15.19,2.34.33,2.79-1,.56-1.6-.82-2.12-1.91-2.57a224.73,224.73,0,0,0-26.43-8.76,344.85,344.85,0,0,0-41.59-8.5c-9.49-1.36-19.06-2.05-28.69-3.05,3.45-1.89,7.37-1.31,10.91-1.49,7.31-.37,14.63-1.18,22-.88,34.7,1.39,68,8.41,98.79,25.06,3.66,2,7.16,4.23,10.77,6.3,1,.57,2.12,1.59,3.26.41s0-2.12-.72-3.07a152,152,0,0,0-26.13-26.68,82.8,82.8,0,0,1,16.3,7.06,178.17,178.17,0,0,1,28.64,19.63,249.56,249.56,0,0,1,24.38,24c16.76,18.56,28.59,40.24,40.27,62.1,8.15,15.26,17.09,30.1,25.66,45.13a5.53,5.53,0,0,1,.87,3.46c-6.15-9-12.27-18-18.47-26.93-7.83-11.33-14.94-23.21-24.16-33.5a150,150,0,0,0-16.42-16.15,10.42,10.42,0,0,1-3.7-5.58c-2.75-9.8-8.24-13.69-18.65-14.44a27.59,27.59,0,0,1-11.52-3.12,174.77,174.77,0,0,0-49.27-17.46,11.69,11.69,0,0,1-3.78-1.9c-11.43-6.89-24-10.19-37-12.66-22.73-4.36-45.7-4-68.68-3.95C1278.13,262.55,1275.75,263.87,1272.89,262.9Z" transform="translate(-1113.07 -29.72)"/><path class="cls-5" d="M1294.86,775.44a138.28,138.28,0,0,0,16-11.17c1.34,3.91,2.66,7.49,3.77,11.13.71,2.33-2.18,6-5.11,6-6.58.07-13.16-.13-19.73-.47-2.56-.13-3.82-2.23-4.9-4.4q-12.33-24.89-24.77-49.74-8.4-16.79-16.95-33.5c-1.08-2.12-1.41-3.08,1.66-3.3a330,330,0,0,1,89.73,6c1.36.28,2.77.18,1.88,2.49a340.5,340.5,0,0,1-25.68,52.54c-.1.16-.32.26-.77.61-1.7-4.56-3.34-9-5-13.46-3.32-8.83-6.61-17.67-10.9-26.09-.75-1.46-1.63-2.85-2.52-4.23a1.69,1.69,0,0,0-2.53-.69c-1.07.73-.72,1.69-.1,2.58,2.61,3.8,4.32,8,6.51,12.94-4.9-2.68-8.42-5.89-12.11-8.85-1.11-.89-2.18-1.84-3.22-2.82s-2.39-1.88-3.37-.68.24,2.36,1.31,3.25c5.82,4.83,11.34,10.08,18.31,13.32,1.17.54,1.46,1.58,1.83,2.58,3,8,5.94,16,9,24a4.24,4.24,0,0,1-.5,4.29C1302.86,763.46,1299.11,769.11,1294.86,775.44Z" transform="translate(-1113.07 -29.72)"/><path class="cls-4" d="M1227.3,290.85c-.32-4.2-.42-7.9-.61-11.57-.53-10-.42-20-1-29.93-.63-11.95-.17-23.93-.77-35.86-.35-7.1,2.32-12.41,6.52-17.59,9.26-11.42,19.41-22.06,28.58-33.57,4.44-5.56,6.21-11.68,6.58-18.47.29-5.36.48-10.72.64-16.09,0-1.51.08-3.16,1.87-3.31s2.55,1.4,2.61,3.09c.08,1.87.09,3.74.13,5.6,0,1.31-.22,2.88,1.43,3.3,1.44.38,2.39-.65,3.17-1.81a180.35,180.35,0,0,1,11.91-15.73c6.51-7.74,13.15-15.33,21.72-21a18.74,18.74,0,0,1,7.66-2.74c1.89-.3,4-.12,4.92,1.76.86,1.7-.17,3.36-1.22,4.8a12.68,12.68,0,0,1-4.11,3.23c-6.51,3.86-12.85,7.89-18.41,13.17-5.82,5.53-6.74,12.28-5.94,19.6.31,2.85,2.57,4,5.2,4.08,3.29.14,6.59,0,9.89.13,8.65.27,11.15,4.21,13.08,11.67a26.25,26.25,0,0,1,.75,8.81,6.44,6.44,0,0,0,1.22,4.65c1.47,2,.95,3.22-1.45,3.74-.74.16-1.47.42-2.22.54-2.55.43-4.28,0-4-3.25a68.47,68.47,0,0,0,0-7.58,9.43,9.43,0,0,0-9.65-9.53c-6,0-12.08,0-18.12,0-1.08,0-2.7-.51-2.61,1.49.08,1.7,1.53,1.24,2.52,1.25,5.6,0,11.2,0,16.8,0,5.21,0,8,2.6,8.23,7.74.16,3.62.12,7.25.15,10.88a5.27,5.27,0,0,1-.19,1.95c-.65,1.64-1.48,3.56-3.28,3.83-2,.31-2.92-1.63-3.76-3.16a12.05,12.05,0,0,1-1.25-5.39,8.64,8.64,0,0,0-3.16-6.61c-3.68-3-8.95-2.37-11.32,2.41-3.82,7.71-10.67,11.41-17.57,15.15-12,6.5-21.61,15.64-30.1,26.13a15.31,15.31,0,0,0-3.46,10.75c.39,18.78,0,37.58.22,56.36C1239,282.4,1233.81,286.61,1227.3,290.85Z" transform="translate(-1113.07 -29.72)"/><path class="cls-5" d="M1391,599.85c4.51-.6,8.32-1,12.12-1.6,5-.75,7-3,6.63-8q-3.09-40.46-32.36-68.58l-3.49-3.32c7.44.37,14.26.74,21.09,1,3.83.18,7.66.31,11.5.35a2.7,2.7,0,0,1,2.85,1.62c12.84,26.65,26.15,53.11,35.84,81.16,1,2.89,2.07,5.85,1.79,9-.72,8.24-4.65,14.22-12.43,17.53-5.65,2.4-11.78,3.48-17.31,6.23-1.84.92-1.71-.86-2-1.64a97.21,97.21,0,0,0-16.14-25.85C1396.69,605.11,1394,602.75,1391,599.85Z" transform="translate(-1113.07 -29.72)"/><path class="cls-4" d="M1311.63,284.6c-.25,1.17-2,1.83-1,3.23,1.52,2.2,3.35-.27,5.06.21-9.51,7.74-13.13,18.49-15.4,29.9a55.11,55.11,0,0,0-1.38,11c0,1.16,0,2.28-1.67,2.19-11.65-.62-18.26,6.42-23.2,15.64-1.26,2.36-2.26,2.48-4.46,1.5-15-6.65-30.25-12.68-45.61-18.46-3.29-1.23-3.27-1.29-.93-4,10.65-12.37,24.39-20.16,39.14-26.44C1278.08,292.6,1294.72,288.19,1311.63,284.6Z" transform="translate(-1113.07 -29.72)"/><path class="cls-4" d="M1312.5,632.06c-3.21.7-7.45-.77-11.14-3.55-8.29-6.27-16.32-6.18-24.61.07a28,28,0,0,1-9.65,4.82c-2.2.58-4.23.74-5.66-1.21s-.94-3.93.07-5.9c2.81-5.42,7.52-8.36,13.13-10.2,4.37-1.43,8.84-1.33,13.33-1.32,3.49,0,4.63-1.17,3.69-4.4-1.51-5.15-3.49-10.1-7.32-14.14-3.07-3.24-6.7-4.39-10.72-3s-6.28,4.65-6.94,8.88c-.31,1.93-.1,4.54-2.77,4.38s-3.12-2.62-3.17-5c-.23-9.67,7.57-20.06,16.56-22,3.23-.69,4.07.07,3.86,3.28a5.22,5.22,0,0,0,2.61,5.29,6.55,6.55,0,0,0,7.17-.07c1.27-.85,2.37-1.94,3.57-2.9,2.92-2.32,5.37-1.51,6.29,2.11.27,1.05.44,2.14.61,3.21.14.91.61,1.39,1.55,1.26s1.17-.78,1.29-1.63c.39-2.92-1.8-7.26-4.31-8.74-3.11-1.85-5.41-.26-7.69,1.61-1.09.9-2.13,1.89-3.29,2.69-1.38,1-2.8.38-4-.46a2.3,2.3,0,0,1-.68-2.67c1.13-3.65,10.94-9.68,14.69-9,4,.76,6.54,3.09,7.94,7a66.44,66.44,0,0,0,22,30.09c11.78,9.25,24.22,8.67,36.47,1.83,2.71-1.51,4.15-.93,5.81.8A29.85,29.85,0,0,1,1376,620c1,1.88.51,2.67-1.44,3.19a200.56,200.56,0,0,1-20.79,4.52A384.81,384.81,0,0,1,1312.5,632.06Z" transform="translate(-1113.07 -29.72)"/><path class="cls-9" d="M1389.69,410.66c-6.82,1.37-11.17,5.87-15.63,10.45-8.59,8.82-14.82,19.46-22.82,28.7-3.21,3.71-6.2,7.68-10.31,11-3-5.25-7.8-5.45-13-4.59-1,.16-1.8.34-2.34-.55-2.69-4.39-6.79-3.78-10.48-2.36-7.6,2.92-14.28,7.18-17.39,15.35-.09.25-.43.4-.84.76-1-2.48-.65-4.78-.24-7.15,1-5.84,3.71-11.17,5-17,1.66-7.59,1.13-15.25,1.24-22.9,0-3.51.61-3.95,4-3.37a81.59,81.59,0,0,0,24.37.07,65.7,65.7,0,0,0,32.28-13.47,51.89,51.89,0,0,0,12.15-13.26c1.09-1.73,1.67-2.22,3.2-.2A99.49,99.49,0,0,1,1389.69,410.66Z" transform="translate(-1113.07 -29.72)"/><path class="cls-5" d="M1270.36,483.3a95.54,95.54,0,0,0-27.81,6.76c-1.65.68-2.41.49-3.26-1.15-20.66-40.14-39-81.21-50.11-125.15-1.27-5-2.24-10-3.45-15.5,7.39.47,14.37.94,21.35,1.35,1.18.07,1.46.52,1.34,1.64-1.71,16.52,2,32.32,6.77,47.89,8.53,28.08,22.77,52.87,43.7,73.62C1262.46,476.3,1266.28,479.57,1270.36,483.3Z" transform="translate(-1113.07 -29.72)"/><path class="cls-5" d="M1342.9,783.62a47,47,0,0,1-15.27-2c-5.38-1.76-9.07-4.79-11.33-10.63-2.57-6.61-1.6-10.52,3.47-15.67,14.24-14.46,23.08-32.42,29.6-51.48,1.14-3.31,2.28-4.29,5.65-3a106.13,106.13,0,0,0,11.06,3.18c1.52.4,2.12,1,1.89,2.73a642.59,642.59,0,0,1-13.8,71.72c-.89,3.5-3,5.11-6.65,5.19C1346,783.65,1344.44,783.62,1342.9,783.62Z" transform="translate(-1113.07 -29.72)"/><path class="cls-5" d="M1364.09,751.59c1.31-6.59,2.56-12.81,3.79-19,.19-.93.47-1.48,1.61-1.67,20.33-3.44,31.4-16.66,35.75-35.7,5.52-24.15,3.63-47.82-8-70.12-4.28-8.2-10.07-15.2-18.75-19.22-6.57-3-13.55-1.79-16.12,3.19a6.27,6.27,0,0,1-4.28,3.49c-.06,0-.17-.1-.54-.36,2.74-5.78,6.16-11,12.12-14,4.47-2.26,8.95-1.68,13.29.47,7.4,3.67,12.85,9.57,17.5,16.13,21.24,30,26.13,62.17,10.74,96.06-8.79,19.35-23.58,33-44,40-.52.18-1.05.31-1.59.44C1365.27,751.4,1364.94,751.44,1364.09,751.59Z" transform="translate(-1113.07 -29.72)"/><path class="cls-5" d="M1392.23,650.63c-2.13,18-2.77,35.65-3.06,53.31-.07,4.42-.05,4.45-4.2,2.93-10.09-3.7-20.37-6.83-30.77-9.51-2.17-.56-2.23-1.3-1.69-3.11A259,259,0,0,0,1363,631.47c0-1-.26-2.27,1-2.52s1.28,1.17,1.61,2a66.85,66.85,0,0,0,8.61,15.81c3.32,4.38,7.49,5.79,12.69,4.83Z" transform="translate(-1113.07 -29.72)"/><path class="cls-9" d="M1301.23,334.41c13.85.4,29.3,5.48,43.93,13.33,4.33,2.32,5.43,6.16,4,11-2.53,8.81-11.38,13.48-20,14.64a38.63,38.63,0,0,1-27.07-6.37c-7.83-5.15-12.35-12.48-13-22,0-.44,0-.88,0-1.32C1288.9,332.56,1289.37,334.61,1301.23,334.41Z" transform="translate(-1113.07 -29.72)"/><path class="cls-5" d="M1240.92,283.29c1.07,6.89,2.08,13.48,3.12,20a1.87,1.87,0,0,1-1.07,2.13c-9.32,5.55-17.77,12.11-24.31,20.87-.78,1-1.56.9-2.57.53-10.61-3.87-21.31-7.47-32.17-10.56-1.27-.37-1.82-1-1.66-2.3a11,11,0,0,0,0-2.3c-.23-3-.15-4.69,4-3.74,5.55,1.24,11.11-.6,16.4-2.46,11.5-4,22.68-8.75,32.3-16.48C1237,287.41,1238.76,285.41,1240.92,283.29Z" transform="translate(-1113.07 -29.72)"/><path class="cls-5" d="M1331.41,328.79c1.26-4.27,1.62-8.61-.4-12.73-2.31-4.73-7-5.76-11.47-5.86s-7.63,2.51-9.4,6.66A29.26,29.26,0,0,0,1308,329c0,1.55.29,3.44-2.17,2.76-1.5-.41-4.45,1.45-4-2.58,1.18-11.13,3-22.11,9.24-31.65,5.39-8.17,13.31-11.83,23.11-11,5.85.51,9,3.73,10,9.6a25.79,25.79,0,0,1-.73,10.12c-1.89,8.15-5.92,15.29-10.69,22.06A1,1,0,0,1,1331.41,328.79Z" transform="translate(-1113.07 -29.72)"/><path class="cls-5" d="M1308.61,761c.53-.9,1-1.8,1.58-2.69,15.26-24.88,28-50.92,35.91-79.12,4.18-14.85,6.76-30,6.72-45.44,0-1-.6-2.49.79-2.88a17.85,17.85,0,0,1,5.82-.81c.88.06.39,1.73.34,2.62a260.53,260.53,0,0,1-10.12,59.89c-6.16,20.8-14.86,40.32-28.92,57.11A55.81,55.81,0,0,1,1308.61,761Z" transform="translate(-1113.07 -29.72)"/><path class="cls-7" d="M1313.92,525.61c-.51,5.12-1.07,10.21-2.9,15.09-1,2.7-2.4,3-4.73,1.61-16.46-10.06-20.55-26-14.54-42.95.58-1.65,1.25-1.55,2.62-.92,4.27,2,8.6,3.83,12.94,5.65a4.75,4.75,0,0,1,2.69,2.66C1312,511.27,1314,520.82,1313.92,525.61Z" transform="translate(-1113.07 -29.72)"/><path class="cls-5" d="M1223.81,283.07a6.81,6.81,0,0,0,0,2c1.82,6-1.2,8.81-6.33,11-8.75,3.77-17.35,7.84-27,8.92-.43,0-.86.16-1.29.18-5.84.32-7.59-2.17-4.84-7.33,4.21-7.91,10.9-13.33,18.57-17.61a70.89,70.89,0,0,1,17.72-6.79c2-.48,3.14-.53,2.92,2.09s0,5,0,7.55Z" transform="translate(-1113.07 -29.72)"/><path class="cls-5" d="M1182.33,319.18c11.09,3.21,21.56,6.73,32,10.43,1.62.57,1.34,1.2.7,2.29a45.86,45.86,0,0,0-5.24,12.71c-.33,1.39-.89,1.89-2.46,1.77-6.78-.49-13.56-.81-20.34-1.14-1.12-.05-1.81-.24-2-1.55A182,182,0,0,1,1182.33,319.18Z" transform="translate(-1113.07 -29.72)"/><path class="cls-4" d="M1270.86,352.87c-.61,1.82-1.17,3.36-1.65,4.93-.4,1.33-1.16.59-1.78.33-13.9-5.95-28.66-8.14-43.51-9.92-3.14-.37-6.26-.95-9.4-1.17-2-.14-2.06-.92-1.58-2.51a65.57,65.57,0,0,1,4.92-11.42c.88-1.68,2-1.65,3.44-1.09q24.08,9.08,47.71,19.26C1269.78,351.62,1271.08,351.67,1270.86,352.87Z" transform="translate(-1113.07 -29.72)"/><path class="cls-10" d="M1311.55,479.45c-2.65.42-5.18-.8-7.75-1.49-3-.8-4-3.91-3.6-7.1,1-7.42,12.61-14.9,18-15.58a7.09,7.09,0,0,1,2.6.1c.67.18,1.61.42,1.72,1.31.13,1.12-1,.9-1.59,1.24a38.44,38.44,0,0,0-8.36,5.63,18.44,18.44,0,0,0-2,2.53c-.7.93-1.24,2.1-.15,2.91s2.08-.4,2.65-1.17c3.45-4.67,8.24-7.24,13.71-8.44a29.48,29.48,0,0,1,7.86-.14,3.37,3.37,0,0,1,3,2.65c.39,1.4-.31,2.27-1.44,3.28-5.44,4.91-11,9.61-17.66,12.78A12.18,12.18,0,0,1,1311.55,479.45Z" transform="translate(-1113.07 -29.72)"/><path class="cls-5" d="M1370.39,607.59c4.89-.5,8.77,1.77,12.29,4.63,9.71,7.86,14.69,18.64,18.29,30.24.35,1.12.11,1.73-1.12,2.21a79.83,79.83,0,0,1-12.31,3.56c-1.25.26-1.7.28-1.69-1.52A54,54,0,0,0,1370.39,607.59Z" transform="translate(-1113.07 -29.72)"/><path class="cls-5" d="M1248.14,710.31c-11.9.17-31.79-7-39.57-14.3a155.3,155.3,0,0,1,24.15-4.61c5.57-.71,5.58-.6,8.13,4.49C1243.25,700.66,1245.67,705.42,1248.14,710.31Z" transform="translate(-1113.07 -29.72)"/><path class="cls-9" d="M1329.28,323.11c.17,3.71-1.13,7.05-2.4,10.46-.77,2.05-1.89,2.48-3.73,2.05-3.51-.82-7-1.73-10.5-2.49-1.56-.34-1.8-1.32-1.84-2.64a29.46,29.46,0,0,1,1.3-10c1.79-5.66,5.08-8,10.17-7C1326.15,314.13,1329.68,315.71,1329.28,323.11Z" transform="translate(-1113.07 -29.72)"/><path class="cls-4" d="M1287.55,574.23c.06,1.23-3.21,3.41-4.49,3-6.12-2-11.24.26-15.81,3.95-4.78,3.88-10.46,3.24-15.89,3.57-2.69.16-3-1.14-.87-3.41a40,40,0,0,1,23.94-12.57,13.49,13.49,0,0,1,11.76,3.83C1286.72,573.13,1287.16,573.75,1287.55,574.23Z" transform="translate(-1113.07 -29.72)"/><path class="cls-11" d="M1368.75,724.09c.78-5.85,1.54-11.46,2.27-17.07.24-1.79,1.31-1,2.15-.68,4.32,1.48,8.61,3.11,13,4.46,2.11.65,2,1.45.88,2.92C1382.5,719.72,1376.35,722.79,1368.75,724.09Z" transform="translate(-1113.07 -29.72)"/><path class="cls-11" d="M1368,628.13c3-.85,6-1.63,8.91-2.49.9-.26,1.42-.14,1.78.8,2.32,5.94,4.35,11.95,4.16,18.44,0,1.19,0,2.72-1.17,3.24s-2.22-.64-3.07-1.47C1373.37,641.54,1370.63,635,1368,628.13Z" transform="translate(-1113.07 -29.72)"/><path class="cls-12" d="M1350.17,270.57c.27-.21.55-.41.83-.61a93.13,93.13,0,0,1,27.61,8.85c-5.12-.41-10.25-.8-15.36-1.27a3,3,0,0,1-1.67-.9A23.38,23.38,0,0,0,1350.17,270.57Z" transform="translate(-1113.07 -29.72)"/><path class="cls-13" d="M1383,722a8.18,8.18,0,0,1-6.07,3.21Z" transform="translate(-1113.07 -29.72)"/><path class="cls-14" d="M1368.72,727.62a14,14,0,0,1,6.14-1.28C1372.68,727.62,1370.66,727.56,1368.72,727.62Z" transform="translate(-1113.07 -29.72)"/><path class="cls-15" d="M1452.74,334.11c-.12,9.05-3.3,16.26-7,23.26a122.18,122.18,0,0,1-13.26,20c-1.3,1.61-1.93,2.68.44,3.91a6.15,6.15,0,0,1,3.16,3.64,1.71,1.71,0,0,1-.55,2.08,1.21,1.21,0,0,1-1.74-.36c-3.6-5.22-9.4-6-14.88-7.3-10.83-2.64-21.91-2.74-33-3.07-2.68-.08-3.52-.66-3.47-3.49.41-23.19,15.59-43,38.58-50.19a75.34,75.34,0,0,1,14.7-3.19C1444.42,318.5,1453.35,322.16,1452.74,334.11Z" transform="translate(-1113.07 -29.72)"/><path class="cls-16" d="M1314.49,498.78c-4.71-.51-8.78-2.65-12.75-4.93a111.31,111.31,0,0,1-16.67-12.17c-1-.84-2-2-1-3s2.21,0,3.09.73A108,108,0,0,0,1303,491a39.49,39.49,0,0,0,11.73,4.89c1,.22,2.07.29,2,1.62C1316.64,499.05,1315.37,498.64,1314.49,498.78Z" transform="translate(-1113.07 -29.72)"/><path class="cls-5" d="M1425.44,377.22c6.81-6.3,9.38-13.76,7.46-22.54-1.07-4.91-4.69-7.62-9.66-7.92-11.49-.69-18.32,5.63-20.16,18.66-.06.43-.08.87-.13,1.31-.71,6.56-.71,6.56-7.16,6.39l-5.6-.16c-4.69-.17-4.69-.17-4.2-4.7,2.22-20.49,16.4-36.95,37-43a74.07,74.07,0,0,1,13.52-2.77c8.58-.82,13.66,4,13.22,12.62-.34,6.6-2.71,12.62-5.63,18.44a129.23,129.23,0,0,1-14.27,22.07C1428.83,377,1427.78,378.66,1425.44,377.22Z" transform="translate(-1113.07 -29.72)"/></svg>